<?xml version="1.0" encoding="UTF-8" ?>
<svg version="1.1" width="64" height="64" xmlns="http://www.w3.org/2000/svg" shape-rendering="crispEdges">
<rect x="40" y="0" width="8" height="8" fill="#AB7C7E" />
<rect x="32" y="8" width="8" height="8" fill="#90687C" />
<rect x="40" y="8" width="8" height="8" fill="#AB7C7E" />
<rect x="16" y="16" width="8" height="8" fill="#35425A" />
<rect x="24" y="16" width="8" height="8" fill="#544D6A" />
<rect x="32" y="16" width="8" height="8" fill="#544D6A" />
<rect x="40" y="16" width="8" height="8" fill="#544D6A" />
<rect x="48" y="16" width="8" height="8" fill="#AB7C7E" />
<rect x="56" y="16" width="8" height="8" fill="#AB7C7E" />
<rect x="8" y="24" width="8" height="8" fill="#0B2D47" />
<rect x="16" y="24" width="8" height="8" fill="#1A3B58" />
<rect x="24" y="24" width="8" height="8" fill="#1A3B58" />
<rect x="32" y="24" width="8" height="8" fill="#544D6A" />
<rect x="40" y="24" width="8" height="8" fill="#DAB08F" />
<rect x="48" y="24" width="8" height="8" fill="#90687C" />
<rect x="8" y="32" width="8" height="8" fill="#0B2D47" />
<rect x="16" y="32" width="8" height="8" fill="#000000" />
<rect x="24" y="32" width="8" height="8" fill="#000000" />
<rect x="32" y="32" width="8" height="8" fill="#FBD5A7" />
<rect x="40" y="32" width="8" height="8" fill="#000000" />
<rect x="48" y="32" width="8" height="8" fill="#000000" />
<rect x="56" y="32" width="8" height="8" fill="#FBD5A7" />
<rect x="8" y="40" width="8" height="8" fill="#051422" />
<rect x="16" y="40" width="8" height="8" fill="#051422" />
<rect x="24" y="40" width="8" height="8" fill="#FFE1C9" />
<rect x="32" y="40" width="8" height="8" fill="#FFE1C9" />
<rect x="40" y="40" width="8" height="8" fill="#FFE1C9" />
<rect x="48" y="40" width="8" height="8" fill="#0B2D47" />
<rect x="16" y="48" width="8" height="8" fill="#051422" />
<rect x="24" y="48" width="8" height="8" fill="#AB7C7E" />
<rect x="32" y="48" width="8" height="8" fill="#DAB08F" />
<rect x="40" y="48" width="8" height="8" fill="#FBD5A7" />
<rect x="24" y="56" width="8" height="8" fill="#544D6A" />
<rect x="32" y="56" width="8" height="8" fill="#90687C" />
<rect x="40" y="56" width="8" height="8" fill="#AB7C7E" />
</svg>